<svg xmlns="http://www.w3.org/2000/svg" width=".6cm" height=".67cm"><path fill-rule="evenodd" fill="#FFF" d="M16.996 18.81c0 .163-.081.215-.245.181a2.05 2.05 0 0 0-.392-.037 93.4 93.4 0 0 0-1.588-.003c-.317.002-.634.019-.951.026-.144.004-.289 0-.433.002l-1.136.017a8.465 8.465 0 0 1-.276.002c-.53-.006-1.059-.015-1.589-.019-.326-.002-.652.006-.978.006l-9.041.001H.245c-.19-.005-.237-.044-.239-.23-.003-.42-.001-.841-.001-1.262H.004c0-.347-.008-.696.002-1.043.022-.761.281-1.439.737-2.06a5.81 5.81 0 0 1 1.385-1.329 7.308 7.308 0 0 1 1.704-.888c.362-.132.722-.275 1.095-.37.479-.121.965-.228 1.455-.289a23.81 23.81 0 0 1 1.812-.137c.928-.046 1.845.067 2.757.225.248.043.504.055.747.116.44.111.884.221 1.305.383.46.177.908.39 1.339.626.679.372 1.29.844 1.76 1.448.257.331.427.728.613 1.106.106.214.166.45.243.677.014.041.015.088.016.132.009.645.019 1.29.026 1.935.002.261-.003.523-.004.784zm-1.351-2.121c-.029-.36.002-.726-.175-1.069-.189-.365-.413-.701-.725-.973-.188-.164-.399-.303-.602-.451a6.07 6.07 0 0 0-1.352-.743 17.98 17.98 0 0 0-1.138-.394 5.046 5.046 0 0 0-.798-.203 19.67 19.67 0 0 0-1.476-.151 12.93 12.93 0 0 0-3.664.27 8.61 8.61 0 0 0-1.607.509c-.826.362-1.585.828-2.151 1.539-.355.446-.589.934-.576 1.513.007.291.004.583-.001.875-.004.228-.005.231.234.231h13.432c.127 0 .255-.005.382.002.161.008.231-.051.224-.215-.01-.247.013-.495-.007-.74zM12.777 7.67c-.242.621-.472 1.251-.947 1.762-.34.366-.754.628-1.204.829a7.762 7.762 0 0 1-1.237.428c-.28.07-.584.049-.878.069-.595.035-1.17-.08-1.718-.271a3.818 3.818 0 0 1-2.005-1.579 5.123 5.123 0 0 1-.666-1.593 7.984 7.984 0 0 1-.187-2.338l.029-.487a6.16 6.16 0 0 1 .428-1.874 4.17 4.17 0 0 1 1.034-1.532A3.802 3.802 0 0 1 6.802.266 5.09 5.09 0 0 1 8.607 0a5.432 5.432 0 0 1 1.497.236c.612.19 1.127.513 1.572.944.467.454.779 1.003 1 1.609.362.99.446 2.012.399 3.045-.028.62-.069 1.249-.298 1.836zm-1.554-4.833a2.525 2.525 0 0 0-1.616-1.371 3.808 3.808 0 0 0-2.002-.048c-.687.162-1.239.501-1.629 1.078-.414.612-.585 1.305-.657 2.014-.105 1.044-.065 2.084.315 3.085.157.413.381.786.713 1.099.572.538 1.288.703 2.042.751.278.018.562-.048.842-.083.588-.073 1.092-.338 1.511-.722.418-.384.64-.879.763-1.436.137-.613.224-1.223.19-1.857.049-.867-.087-1.71-.472-2.51z"/></svg>