<svg xmlns="http://www.w3.org/2000/svg" width="28" height="22"><path fill-rule="evenodd" fill="#FFF" d="M27.934 10.022c-.03.229-.147.459-.269.662-.182.302-.482.486-.792.633a1.63 1.63 0 0 1-.513.132c-.245.027-.257.037-.29.278-.031.228-.094.452-.142.678-.056.261-.108.523-.167.783-.125.545-.256 1.089-.38 1.635-.052.23-.089.464-.138.695-.047.226-.101.451-.15.677-.053.24-.102.48-.157.72-.056.25-.117.499-.175.749-.043.185-.086.37-.124.556-.079.381-.144.766-.233 1.145-.091.39-.173.787-.315 1.158a2.212 2.212 0 0 1-.991 1.139c-.437.252-.905.338-1.409.337-5.175-.007-10.35-.005-15.525-.004-.407 0-.779-.113-1.143-.295a1.606 1.606 0 0 1-.603-.505.343.343 0 0 0-.074-.078c-.286-.208-.373-.525-.459-.845-.023-.087-.069-.168-.098-.254-.032-.097-.055-.196-.086-.307l-.088.017c.004-.037.001-.065.012-.085.095-.166.051-.328-.007-.491a1.456 1.456 0 0 1-.057-.192c-.1-.461-.199-.922-.296-1.383-.083-.392-.156-.786-.246-1.176-.086-.375-.192-.745-.282-1.119-.018-.073.005-.155-.008-.229-.042-.223-.093-.443-.139-.665-.061-.292-.12-.583-.182-.875-.039-.186-.076-.372-.122-.556-.092-.368-.189-.736-.284-1.104l-.006-.03c-.065-.334-.065-.332-.385-.398a2.054 2.054 0 0 1-.87-.396c-.237-.188-.381-.441-.521-.711C-.1 9.7.014 9.042.04 8.404c.019-.468.208-.914.567-1.249.338-.316.735-.502 1.199-.504 1.318-.005 2.636-.002 3.954-.002.196 0 .234.04.235.234v.822c-.001.167-.057.219-.224.219-1.113-.001-2.227-.006-3.34-.001a5.206 5.206 0 0 0-.67.057c-.259.034-.409.164-.426.427-.028.416-.036.836-.014 1.253a.492.492 0 0 0 .512.466c1.134-.007 2.267.01 3.4.013.125.001.15.068.151.165.002.216-.004.432-.002.648.002.113.011.227.022.339.012.138-.041.188-.173.186-.617-.011-1.235-.018-1.852-.024-.108-.001-.141.048-.117.159.085.376.158.754.241 1.131.046.207.115.41.155.618.055.29.185.563.171.871-.006.123.054.25.083.375.055.24.111.481.164.722.05.225.089.454.146.678.064.258.148.51.213.768.047.184.078.371.112.558.039.212.067.426.114.636.05.225.122.446.177.67.051.21.089.422.137.633.06.259.101.527.192.775.131.355.417.552.78.612.195.033.397.033.595.034h15.096c.189 0 .385.007.564-.042.311-.086.567-.282.681-.594.103-.283.155-.584.225-.878.096-.395.189-.791.28-1.187.039-.165.072-.332.105-.499.046-.237.084-.475.136-.711.083-.37.179-.738.262-1.109.088-.396.167-.795.254-1.191.049-.221.109-.44.158-.661.053-.234.098-.47.147-.705.047-.227.096-.453.144-.68.057-.266.111-.533.173-.798.034-.144-.026-.184-.158-.184-.567.003-1.134.001-1.701.002-.221 0-.237-.015-.237-.235v-.868c.001-.179.025-.204.206-.204h3.25c.156 0 .322-.002.412-.151.079-.131.159-.281.172-.428.026-.297-.003-.599.01-.898.025-.568-.288-.747-.745-.748a774.194 774.194 0 0 0-3.048-.003c-.215 0-.429.008-.643.014-.151.004-.221-.06-.224-.226a39.015 39.015 0 0 1 0-.838c.001-.172.05-.221.221-.222.276-.003.551-.001.827-.001.991 0 1.983.004 2.974-.001.492-.002.934.124 1.307.462.206.185.35.408.459.662.126.297.155.61.152.923-.005.444-.01.89-.067 1.328zm-7.635 2.457c.11.001.156.069.161.168.005.114.003.228.003.342v5.209c0 .253-.042.295-.296.295l-.735.001c-.226-.001-.257-.031-.257-.26l-.001-5.256c0-.088-.003-.176-.009-.263-.009-.137.063-.232.2-.235.312-.005.623-.001.934-.001zm.298-3.209c-.141.056-.226.014-.283-.132-.253-.657-.503-1.314-.76-1.969-.307-.779-.618-1.557-.929-2.335-.264-.662-.532-1.324-.795-1.987-.283-.711-.563-1.424-.844-2.135C16.9.491 16.929.42 17.15.33c.236-.097.473-.19.71-.283.038-.015.079-.022.149-.042.039.033.114.065.136.12.156.38.298.765.448 1.147.152.387.31.772.461 1.16.164.42.32.845.487 1.264.115.291.248.575.363.865.154.386.296.776.449 1.163.192.488.391.972.586 1.459.119.3.235.602.352.903.076.195.162.388.222.588.056.187.03.212-.152.284-.256.102-.509.209-.764.312zm-3.251 3.209c.175.001.228.064.219.235-.008.139-.01.279-.01.418v5.112c0 .224-.024.248-.245.249-.25.001-.501.001-.751-.001-.222-.001-.293-.072-.293-.298l-.001-2.726v-2.68c0-.263.047-.31.3-.31.26 0 .521-.001.781.001zm-3.778.006c.305.006.61.009.915.005.132-.002.178.073.178.181.004 1.559.005 3.118.007 4.677v.882c0 .212-.052.263-.265.264h-.735c-.253-.001-.286-.033-.286-.283v-2.713-2.636c0-.072-.006-.147.012-.215.021-.086.059-.164.174-.162zm-2.752-.006c.26.001.52-.002.779.016.055.004.121.081.15.14.027.055.014.131.014.198v5.394c0 .239-.029.267-.265.267-.261-.001-.521-.006-.781 0-.138.003-.197-.063-.207-.191-.004-.056-.004-.113-.004-.17l.001-5.332c0-.292.029-.324.313-.322zm7.899-5.568c-.009.252-.002.504.001.757.003.236-.065.299-.292.269a2.35 2.35 0 0 0-.29-.017H9.738c-.071 0-.143.008-.214.012-.128.008-.203-.076-.201-.208.006-.294.012-.588.004-.882-.004-.129.049-.181.163-.192.041-.004.082-.002.123-.002h8.855c.22 0 .255.046.247.263zM7.831 12.479c.285 0 .571.005.857.006.129 0 .185.076.188.195.005.17.002.341.002.511v5.038c0 .234-.027.263-.251.265-.271.001-.542.002-.812-.002-.183-.002-.224-.047-.224-.232v-5.534c0-.207.039-.247.24-.247zm2.608-10.2c-.205.52-.4 1.045-.605 1.565-.115.291-.247.575-.362.867-.125.314-.234.635-.357.95-.108.278-.231.549-.341.826-.164.41-.322.823-.485 1.234-.121.305-.249.609-.37.914-.061.152-.112.309-.172.462-.081.211-.16.238-.363.151a28.488 28.488 0 0 0-.746-.307c-.146-.057-.165-.107-.106-.258.187-.478.367-.959.554-1.437.114-.292.239-.579.355-.87.162-.405.319-.812.479-1.218l.447-1.132c.125-.315.248-.631.374-.946.128-.319.261-.636.386-.956.126-.324.244-.652.371-.977.073-.187.157-.369.233-.554.057-.142.1-.291.167-.428.033-.068.105-.116.151-.165.091.031.144.047.196.068.241.096.481.195.723.288.127.049.183.151.132.278-.219.549-.444 1.096-.661 1.645z"/></svg>