<svg width="24" height="26" xmlns="http://www.w3.org/2000/svg" xmlns:xlink="http://www.w3.org/1999/xlink" viewBox="0 0 24 26"><defs><path d="M518.844 1215.835c.036.638.07 1.276.108 1.913.027.443.054.886.094 1.327.042.467.1.933.148 1.4.008.075.01.152.012.228.002.088.041.13.131.138.416.035.83.08 1.245.109.443.031.886.05 1.329.074l1.594.083c.091.004.183 0 .274 0 .125 0 .25.006.374.003.186-.004.372-.008.557-.025.05-.005.102-.05.142-.089.428-.424.852-.852 1.28-1.275.461-.455.93-.9 1.388-1.358.517-.518 1.026-1.043 1.538-1.566.254-.258.502-.522.76-.776.217-.213.448-.413.668-.624.092-.089.17-.193.259-.286.07-.075.149-.142.221-.214.2-.2.396-.402.597-.6.108-.107.225-.206.334-.312.306-.299.612-.596.913-.9.555-.56 1.103-1.127 1.658-1.688.325-.327.654-.65.986-.969.253-.244.57-.277.885-.192.269.073.465.267.578.533.167.396.076.739-.219 1.036-.244.246-.492.489-.737.735l-1.63 1.64c-.396.396-.792.792-1.19 1.186-.45.444-.906.882-1.353 1.328-.375.375-.736.763-1.11 1.137-.297.297-.61.578-.905.875-.259.258-.503.53-.758.793-.132.137-.275.263-.41.398-.436.437-.872.877-1.308 1.316-.216.218-.432.437-.65.654-.07.07-.151.128-.22.199-.162.165-.327.329-.477.504-.178.21-.414.287-.668.335-.127.024-.252.055-.378.079a.872.872 0 0 1-.159.014c-.311 0-.622.005-.934-.001-.33-.007-.66-.025-.99-.037-.012 0-.023-.003-.035-.003-.363-.017-.726-.033-1.09-.048-.193-.009-.397.02-.578-.033-.317-.091-.634-.032-.95-.063-.127-.012-.253-.053-.381-.063-.208-.016-.417-.01-.624-.027-.166-.012-.329-.048-.494-.064-.101-.01-.205.004-.306-.003-.335-.025-.597-.17-.765-.475a1.619 1.619 0 0 1-.197-.731c-.01-.267-.048-.533-.07-.8a316.14 316.14 0 0 1-.112-1.313c-.031-.377-.067-.755-.09-1.133-.044-.729-.08-1.458-.12-2.188a5.897 5.897 0 0 1 .064-1.267c.005-.03.01-.062.007-.092-.028-.246.108-.42.255-.589.093-.106.188-.211.29-.31.12-.115.253-.218.37-.337.136-.138.254-.293.39-.43.336-.339.681-.668 1.016-1.006 2.115-2.134 4.228-4.27 6.342-6.404 1.051-1.06 2.105-2.118 3.156-3.179.317-.319.625-.647.944-.964a1.6 1.6 0 0 1 .483-.358c.32-.139.621-.082.924.056.415.19.717.523 1.045.822.272.25.54.505.801.765.287.285.565.58.849.868.12.122.25.234.37.357.483.498.968.996 1.445 1.5.214.228.423.462.61.712.18.24.34.495.384.807.053.371-.063.676-.322.937-1.109 1.116-2.218 2.231-3.325 3.349-.306.309-.605.626-.91.935-.153.154-.316.297-.47.45-.253.253-.503.508-.754.764-.325.332-.646.669-.976.997-.24.24-.495.463-.733.704-.175.175-.328.37-.5.55-.179.187-.367.366-.553.546-.31.3-.626.593-.93.898-.25.251-.483.52-.731.773-.222.225-.445.451-.686.655a.83.83 0 0 1-.577.201c-.426-.014-.853-.008-1.278-.027-.341-.014-.682-.05-1.022-.08-.178-.017-.357-.031-.53-.066-.406-.082-.68-.414-.716-.83-.047-.537-.107-1.073-.152-1.61-.017-.205-.007-.413-.009-.62-.001-.156-.012-.313-.002-.468.023-.33.182-.593.416-.817.116-.11.225-.227.339-.34.368-.365.739-.727 1.104-1.095.314-.316.62-.64.935-.956.325-.327.657-.647.983-.975.349-.351.69-.71 1.04-1.062.344-.346.695-.684 1.039-1.03.325-.327.64-.664.968-.989.178-.176.36-.355.563-.498.28-.197.599-.179.888-.025.31.165.49.434.5.805a.845.845 0 0 1-.23.628c-.315.332-.635.659-.957.984-.395.402-.796.799-1.192 1.2-.283.288-.56.582-.845.868-.603.606-1.213 1.205-1.816 1.81-.304.306-.596.623-.9.927-.295.293-.599.576-.9.861-.087.082-.1.168-.081.289.027.171.01.35.022.524.011.183.032.365.05.548.008.077.059.114.13.121.132.013.265.028.398.032.212.006.425.004.637.006.012 0 .025-.003.034.002.171.097.267-.024.369-.128.552-.564 1.103-1.13 1.659-1.69.595-.602 1.197-1.198 1.792-1.8.328-.33.646-.67.973-1.001.19-.193.388-.377.58-.568l1.928-1.94 1.684-1.696c.293-.295.584-.591.882-.88.077-.075.077-.133.013-.205-.126-.138-.25-.278-.38-.411a877.44 877.44 0 0 0-2.565-2.602c-.241-.243-.497-.473-.74-.715-.072-.072-.116-.055-.178.008-.595.603-1.193 1.204-1.79 1.805-.77.775-1.542 1.548-2.31 2.324-.36.363-.711.733-1.07 1.096-.305.31-.617.612-.923.92-1.144 1.154-2.287 2.31-3.43 3.465-.397.4-.795.8-1.19 1.2-.145.147-.28.303-.426.447-.164.163-.332.322-.506.475-.155.137-.246.29-.216.508.017.125.003.253.003.38h-.018z" id="a"/></defs><desc>Generated with Avocode.</desc><g transform="translate(-515 -1199)"><title>Shape 20</title><use xlink:href="#a" fill="#0053a7"/></g></svg>