<svg
        xmlns="http://www.w3.org/2000/svg"
        xmlns:xlink="http://www.w3.org/1999/xlink">
    <path fill-rule="evenodd"
          d="M16.560,12.572 C16.263,12.862 15.905,13.007 15.487,13.007 L1.512,13.007 C1.095,13.007 0.737,12.862 0.439,12.572 C0.142,12.282 -0.007,11.935 -0.007,11.528 L-0.007,4.191 C0.272,4.493 0.591,4.761 0.952,4.995 C3.243,6.510 4.816,7.573 5.671,8.183 C6.031,8.442 6.324,8.643 6.549,8.789 C6.773,8.933 7.073,9.081 7.446,9.232 C7.819,9.383 8.167,9.458 8.490,9.458 L8.500,9.458 L8.509,9.458 C8.832,9.458 9.180,9.383 9.554,9.232 C9.927,9.081 10.226,8.933 10.451,8.789 C10.676,8.643 10.968,8.442 11.329,8.183 C12.405,7.425 13.981,6.362 16.057,4.995 C16.418,4.755 16.734,4.487 17.006,4.191 L17.006,11.528 C17.006,11.935 16.858,12.282 16.560,12.572 ZM15.383,4.006 C13.003,5.614 11.522,6.615 10.940,7.009 C10.877,7.052 10.742,7.146 10.536,7.291 C10.330,7.436 10.160,7.553 10.024,7.642 C9.887,7.732 9.723,7.832 9.530,7.943 C9.337,8.053 9.155,8.137 8.984,8.192 C8.813,8.247 8.655,8.275 8.509,8.275 L8.500,8.275 L8.490,8.275 C8.345,8.275 8.186,8.247 8.016,8.192 C7.845,8.137 7.663,8.053 7.470,7.943 C7.276,7.832 7.112,7.732 6.976,7.642 C6.840,7.553 6.669,7.436 6.463,7.291 C6.258,7.146 6.123,7.052 6.060,7.009 C5.484,6.615 4.655,6.053 3.572,5.323 C2.490,4.593 1.841,4.154 1.626,4.006 C1.234,3.748 0.863,3.393 0.515,2.939 C0.167,2.487 -0.007,2.066 -0.007,1.678 C-0.007,1.198 0.125,0.798 0.387,0.477 C0.650,0.156 1.025,-0.003 1.512,-0.003 L15.487,-0.003 C15.899,-0.003 16.255,0.141 16.555,0.431 C16.856,0.720 17.006,1.068 17.006,1.475 C17.006,1.961 16.851,2.427 16.541,2.870 C16.231,3.314 15.845,3.692 15.383,4.006 Z"/>
</svg>