<svg
        xmlns="http://www.w3.org/2000/svg"
        xmlns:xlink="http://www.w3.org/1999/xlink">
    <defs>
        <filter id="Filter_0">
            <feFlood flood-color="rgb(225, 225, 225)" flood-opacity="1" result="floodOut" />
            <feComposite operator="atop" in="floodOut" in2="SourceGraphic" result="compOut" />
            <feBlend mode="normal" in="compOut" in2="SourceGraphic" />
        </filter>

    </defs>
    <g filter="url(#Filter_0)">
        <path fill-rule="evenodd"
              d="M16.560,12.571 C16.263,12.861 15.905,13.006 15.487,13.006 L1.512,13.006 C1.095,13.006 0.737,12.861 0.439,12.571 C0.142,12.282 -0.007,11.934 -0.007,11.528 L-0.007,4.191 C0.272,4.493 0.591,4.760 0.952,4.994 C3.243,6.510 4.816,7.572 5.671,8.182 C6.031,8.442 6.324,8.643 6.549,8.788 C6.774,8.933 7.073,9.080 7.446,9.231 C7.819,9.382 8.168,9.458 8.490,9.458 L8.500,9.458 L8.509,9.458 C8.832,9.458 9.180,9.382 9.554,9.231 C9.927,9.080 10.226,8.933 10.451,8.788 C10.676,8.643 10.968,8.442 11.329,8.182 C12.405,7.425 13.981,6.362 16.057,4.994 C16.418,4.754 16.734,4.486 17.006,4.191 L17.006,11.528 C17.006,11.934 16.858,12.282 16.560,12.571 ZM15.383,4.006 C13.003,5.614 11.522,6.614 10.940,7.009 C10.877,7.052 10.742,7.146 10.536,7.291 C10.331,7.435 10.160,7.552 10.024,7.642 C9.888,7.732 9.723,7.831 9.530,7.942 C9.337,8.053 9.155,8.136 8.984,8.192 C8.813,8.247 8.655,8.275 8.509,8.275 L8.500,8.275 L8.490,8.275 C8.345,8.275 8.186,8.247 8.016,8.192 C7.845,8.136 7.663,8.053 7.470,7.942 C7.276,7.831 7.112,7.732 6.976,7.642 C6.840,7.552 6.669,7.435 6.463,7.291 C6.258,7.146 6.123,7.052 6.060,7.009 C5.484,6.615 4.655,6.053 3.572,5.323 C2.490,4.593 1.841,4.153 1.626,4.006 C1.234,3.747 0.863,3.392 0.515,2.939 C0.167,2.486 -0.007,2.066 -0.007,1.677 C-0.007,1.197 0.125,0.797 0.387,0.476 C0.650,0.156 1.025,-0.004 1.512,-0.004 L15.487,-0.004 C15.899,-0.004 16.255,0.140 16.555,0.430 C16.856,0.719 17.006,1.068 17.006,1.474 C17.006,1.961 16.851,2.426 16.541,2.869 C16.231,3.313 15.845,3.692 15.383,4.006 Z"/>
    </g>
</svg>