<svg width="34" height="36" xmlns="http://www.w3.org/2000/svg" xmlns:xlink="http://www.w3.org/1999/xlink" viewBox="0 0 34 36"><defs><path d="M1018.281 5118.918l1.406-6.313c.316-1.426 1.697-2.6 3.086-2.6h6.04c.2 0 .351.219.312.4l-1.928 8.657a.303.303 0 0 1-.298.244l-8.32-.002c-.206 0-.34-.197-.298-.386zm.614 24.083h-5.596a.297.297 0 0 1-.242-.118c-.06-.079-.08-.17-.06-.267l4.001-17.936a.304.304 0 0 1 .298-.242h8.32c.098 0 .182.039.242.116.06.079.08.172.06.267l-3.377 15.168c-.364 1.655-2.03 3.012-3.646 3.012zm21.264-18.18l-1.43 6.336c-.323 1.418-1.792 2.558-3.18 2.558l-5.961.009a.298.298 0 0 1-.242-.12.305.305 0 0 1-.06-.267l1.957-8.668a.309.309 0 0 1 .302-.245l8.316.012c.094 0 .179.041.238.118.064.077.08.168.06.267zm-5.378-14.816h6.22c1.391 0 2.26 1.164 1.935 2.586l-1.473 6.469a.31.31 0 0 1-.301.244h-8.362a.298.298 0 0 1-.242-.12c-.06-.077-.08-.17-.06-.266l1.985-8.67a.304.304 0 0 1 .298-.243z" id="a"/></defs><desc>Generated with Avocode.</desc><g transform="translate(-1011 -5109)"><title>Shape 1 copy 6</title><use xlink:href="#a" fill="#b7b6b6"/></g></svg>