<svg xmlns="http://www.w3.org/2000/svg" width="16" height="23"><path fill-rule="evenodd" fill="#FFF" d="M15.642 11.339c-.318 1.055-.831 2.01-1.442 2.909-.981 1.442-1.962 2.884-2.957 4.316-.692.995-1.409 1.972-2.113 2.959-.316.443-.629.888-.942 1.333-.133.19-.191.194-.322.002-.196-.287-.38-.582-.581-.864-.101-.144-.238-.26-.34-.403-.822-1.156-1.648-2.309-2.456-3.476-.455-.656-.875-1.339-1.317-2.005-.583-.878-1.204-1.733-1.748-2.637-.366-.608-.697-1.249-.888-1.952-.079-.291-.217-.568-.27-.863C.157 10.047.086 9.426 0 8.81a.793.793 0 0 1 .048-.007C.002 7.951.109 7.113.3 6.291c.191-.823.524-1.589.947-2.318A8.137 8.137 0 0 1 4.84.689 7.32 7.32 0 0 1 7.881 0a7.609 7.609 0 0 1 2.137.261c.81.223 1.565.559 2.26 1.033.399.272.774.587 1.134.913.703.633 1.231 1.414 1.666 2.262.33.641.556 1.325.713 2.034.186.842.235 1.698.197 2.558-.034.771-.123 1.539-.346 2.278zm-1.123-2.752a7.051 7.051 0 0 0-.435-2.718 6.889 6.889 0 0 0-.911-1.676 6.287 6.287 0 0 0-1.667-1.595c-.569-.373-1.155-.707-1.826-.832-.461-.086-.923-.186-1.389-.227a4.536 4.536 0 0 0-1.979.242c-.496.183-1.006.351-1.464.613-.864.495-1.576 1.188-2.144 2.036a7.156 7.156 0 0 0-1.103 2.836c-.064.384-.143.771-.157 1.159-.025.665.028 1.33.204 1.974.125.457.255.914.424 1.354.095.246.28.454.412.686.256.448.476.922.76 1.349.673 1.009 1.374 1.999 2.065 2.994.339.49.675.981 1.026 1.461.208.284.451.539.66.821.304.41.592.832.885 1.251.114.161.172.167.283.011l.85-1.205c.774-1.097 1.562-2.185 2.319-3.295.745-1.093 1.465-2.205 2.185-3.316a5.944 5.944 0 0 0 .829-2.063c.122-.608.153-1.237.224-1.856a.875.875 0 0 0-.051-.004zm-3.413 1.54c-.358.685-.891 1.168-1.545 1.523-.509.276-1.062.351-1.674.406-.253-.041-.575-.038-.853-.151-.393-.159-.757-.397-1.129-.611-.326-.188-.623-.416-.814-.76a14.438 14.438 0 0 1-.52-.994c-.182-.396-.21-.839-.209-1.264a3.796 3.796 0 0 1 .477-1.885c.412-.733.985-1.271 1.728-1.593.847-.366 1.717-.41 2.595-.083a3.524 3.524 0 0 1 1.784 1.431c.197.31.323.673.461 1.021.227.574.177 1.177.115 1.77-.045.424-.22.814-.416 1.19zM7.973 6.034c-1.141-.009-2.124.935-2.147 2.202-.022 1.197.916 2.257 2.127 2.261 1.212.004 2.155-.991 2.16-2.247-.023-1.201-.899-2.205-2.14-2.216z"/></svg>