<?xml version="1.0" encoding="utf-8"?>
<!-- Generator: Adobe Illustrator 21.0.0, SVG Export Plug-In . SVG Version: 6.00 Build 0)  -->
<svg version="1.1" id="Слой_1" xmlns="http://www.w3.org/2000/svg" xmlns:xlink="http://www.w3.org/1999/xlink" x="0px" y="0px"
	 viewBox="0 0 30 30" style="enable-background:new 0 0 30 30;" xml:space="preserve">
<title>insta</title>
<g id="Слой_2_2_">
	<g id="Isolation_Mode_2_">
		<path class="st0" d="M19.6,10.6c-0.2-0.2-0.5-0.3-0.7-0.3c-0.5,0-0.9,0.4-0.9,0.9s0.4,0.9,0.9,0.9s0.9-0.4,1-0.9
			C19.9,11,19.8,10.8,19.6,10.6z M19.6,10.6c-0.2-0.2-0.5-0.3-0.7-0.3c-0.5,0-0.9,0.4-0.9,0.9s0.4,0.9,0.9,0.9s0.9-0.4,1-0.9
			C19.9,11,19.8,10.8,19.6,10.6z M15,11.3c-2.1,0-3.7,1.6-3.7,3.7s1.7,3.7,3.7,3.7s3.7-1.6,3.7-3.7S17.1,11.3,15,11.3z M15,17.4
			c-1.3,0-2.4-1.1-2.4-2.4s1.1-2.4,2.4-2.4s2.4,1.1,2.4,2.4S16.3,17.4,15,17.4z M15,0C6.7,0,0,6.7,0,15s6.7,15,15,15s15-6.7,15-15
			S23.3,0,15,0z M22.1,18.2c0,2.1-1.7,3.9-3.9,3.9h-6.4c-2.2,0-3.9-1.7-3.9-3.9v-6.4c0-2.2,1.8-3.9,3.9-3.9h6.4
			c2.2,0,3.9,1.7,3.9,3.9V18.2z M18.9,10.3c-0.5,0-0.9,0.4-0.9,0.9s0.4,0.9,0.9,0.9s0.9-0.4,1-0.9c0-0.2-0.1-0.4-0.3-0.6
			C19.4,10.4,19.1,10.3,18.9,10.3z M15,11.3c-2.1,0-3.7,1.6-3.7,3.7s1.7,3.7,3.7,3.7s3.7-1.6,3.7-3.7S17.1,11.3,15,11.3z M15,17.4
			c-1.3,0-2.4-1.1-2.4-2.4s1.1-2.4,2.4-2.4s2.4,1.1,2.4,2.4S16.3,17.4,15,17.4z M15,11.3c-2.1,0-3.7,1.6-3.7,3.7s1.7,3.7,3.7,3.7
			s3.7-1.6,3.7-3.7S17.1,11.3,15,11.3z M15,17.4c-1.3,0-2.4-1.1-2.4-2.4s1.1-2.4,2.4-2.4s2.4,1.1,2.4,2.4S16.3,17.4,15,17.4z"/>
	</g>
</g>
</svg>
