<svg width="31" height="33" xmlns="http://www.w3.org/2000/svg" xmlns:xlink="http://www.w3.org/1999/xlink" viewBox="0 0 31 33"><defs><path d="M1222.999 285.512v13.55c0 .244-.033.477-.2.673-.207.243-.622.343-.907.2-.72-.36-1.437-.727-2.157-1.089-.735-.37-1.471-.735-2.205-1.106-.68-.343-1.357-.692-2.036-1.038-.304-.155-.606-.315-.916-.458-.086-.04-.197-.038-.296-.038l-7.444-.003c-.237 0-.473.01-.71-.001-.16-.008-.318-.05-.478-.066-.15-.015-.3-.023-.451-.023-.647-.003-1.305-.078-1.937.018-.72.109-1.431.037-2.145.066a.746.746 0 0 1-.753-.462.827.827 0 0 1-.06-.34c.008-.536.04-1.072.037-1.607a239.615 239.615 0 0 0-.043-3.303c-.003-.169.046-.224.22-.218.382.012.765.008 1.147.001.136-.002.176.05.176.178-.002 1.17.001 2.34-.001 3.51 0 .177-.018.355-.04.531-.018.148.05.194.182.186.258-.015.515-.045.772-.043.404.003.807.036 1.21.04.263.001.525-.042.787-.04.691.007 1.381.042 2.072.04 2.288-.008 4.577-.03 6.865-.038.187 0 .193-.089.193-.228-.002-3.47-.002-6.94-.002-10.41v-7.37c0-.249 0-.25-.249-.249h-11.495c-.056 0-.113.003-.169.002-.093-.002-.132.044-.127.134.002.045 0 .09 0 .135 0 1.349-.002 2.697.003 4.046 0 .125-.034.166-.162.163a41.08 41.08 0 0 0-1.232 0c-.11.001-.149-.034-.149-.144.003-1.719.007-3.437.001-5.155-.001-.382.332-.731.778-.744.28-.008.562-.004.844-.004 4.05-.001 8.102-.008 12.153.007.401.002.714-.157 1.041-.322.98-.495 1.958-.994 2.938-1.49.978-.497 1.957-.992 2.937-1.487.285-.144.569-.29.858-.427.391-.186.81-.076 1.025.294.082.141.12.329.12.495.006 4.545.005 9.09.005 13.634zm-1.58-12.442c-.066.016-.089.017-.107.026l-3.177 1.614c-.79.401-1.57.821-2.373 1.194-.28.13-.303.301-.303.558.006 6.078.004 12.156.004 18.235 0 .05-.012.105.004.15.017.05.048.114.092.136.86.443 1.724.882 2.587 1.32 1.044.529 2.09 1.054 3.132 1.585.113.057.141.024.14-.085v-.554l.002-23.91v-.269zm-21.573 16.087h-3.29c-.85 0-1.556-.696-1.553-1.527.006-1.354.011-2.708-.003-4.062-.008-.888.664-1.595 1.609-1.597 2.188-.004 4.376 0 6.565 0 .244 0 .258-.013.26-.254.005-.66-.002-1.32.021-1.98.018-.517.49-1.067.991-1.22.655-.198 1.223-.075 1.713.415 1.016 1.014 2.04 2.02 3.06 3.028.81.8 1.617 1.604 2.434 2.397.32.31.53.67.553 1.113.026.486-.15.904-.5 1.25-1.324 1.306-2.644 2.614-3.965 3.921-.523.517-1.05 1.03-1.567 1.55-.327.33-.714.515-1.179.536-.575.025-1.26-.588-1.437-1.066-.127-.342-.12-.675-.124-1.018-.004-.43-.005-.862.001-1.292.002-.146-.05-.196-.197-.196-1.13.004-2.261.003-3.392.002zm5.15 1.974c.088-.077.14-.118.186-.163.784-.777 1.565-1.555 2.35-2.33.996-.986 1.994-1.97 2.993-2.952.09-.09.096-.157 0-.25a89.163 89.163 0 0 1-1.133-1.102c-1.412-1.397-2.821-2.796-4.233-4.193-.039-.039-.09-.064-.162-.114-.01.086-.02.135-.02.183 0 1.03.002 2.06.004 3.09 0 .232 0 .232-.226.232l-7.968-.001c-.235 0-.235 0-.235.231l-.001 3.593c0 .221.017.245.235.245 2.667 0 5.334 0 8-.005.146 0 .2.035.199.186-.007 1.047-.007 2.093-.008 3.14 0 .054.01.107.02.21z" id="a"/></defs><desc>Generated with Avocode.</desc><g transform="translate(-1193 -269)"><title>Shape 17</title><use xlink:href="#a" fill="#005fb2"/></g></svg>