<svg
        xmlns="http://www.w3.org/2000/svg"
        xmlns:xlink="http://www.w3.org/1999/xlink">
    <path fill-rule="evenodd"
          d="M15.000,12.499 C15.000,12.940 14.775,13.165 14.597,13.346 L13.660,14.283 C13.003,14.937 12.628,14.993 12.203,15.000 L12.184,15.000 C11.646,15.000 8.144,14.221 4.466,10.533 C0.775,6.856 -0.000,3.350 -0.000,2.812 C-0.000,2.383 0.053,2.006 0.716,1.340 L1.653,0.402 C1.835,0.225 2.059,-0.001 2.500,-0.001 C2.891,-0.001 3.178,0.147 3.381,0.449 C4.319,1.855 4.675,2.380 4.853,2.643 C5.034,2.909 5.034,2.909 5.262,3.268 C5.562,3.737 5.528,4.205 5.169,4.587 C4.403,5.406 4.537,6.190 4.653,6.421 C4.947,7.006 5.350,7.721 6.471,8.840 C7.372,9.743 7.956,10.033 8.578,10.346 C8.684,10.396 9.331,10.655 10.428,9.759 C10.819,9.436 11.268,9.427 11.737,9.740 L14.550,11.618 C14.853,11.821 15.000,12.109 15.000,12.499 Z"/>
</svg>