<svg
        xmlns="http://www.w3.org/2000/svg"
        xmlns:xlink="http://www.w3.org/1999/xlink"
        width="14px" height="16px">
    <defs>
        <linearGradient id="PSgrad_0" x1="70.711%" x2="0%" y1="70.711%" y2="0%">
            <stop offset="0%" stop-color="rgb(255,77,81)" stop-opacity="1" />
            <stop offset="100%" stop-color="rgb(255,142,27)" stop-opacity="1" />
        </linearGradient>

    </defs>
    <path fill-rule="evenodd"  fill="rgb(255, 255, 255)"
          d="M13.971,8.188 C13.957,8.256 13.933,8.318 13.906,8.382 C13.890,8.421 13.888,8.462 13.867,8.499 C13.856,8.517 13.839,8.527 13.827,8.544 C13.791,8.600 13.744,8.645 13.696,8.693 C13.649,8.741 13.604,8.789 13.549,8.825 C13.532,8.836 13.522,8.855 13.504,8.865 L1.487,15.865 C1.477,15.871 1.466,15.870 1.456,15.876 C1.384,15.913 1.308,15.934 1.227,15.953 C1.170,15.968 1.115,15.984 1.056,15.987 C1.037,15.989 1.020,15.999 1.000,15.999 C0.958,15.999 0.923,15.980 0.883,15.975 C0.809,15.967 0.738,15.957 0.667,15.932 C0.614,15.913 0.568,15.886 0.520,15.859 C0.457,15.824 0.399,15.789 0.344,15.741 C0.297,15.699 0.260,15.651 0.221,15.600 C0.194,15.564 0.156,15.540 0.133,15.499 C0.122,15.480 0.122,15.459 0.113,15.440 C0.084,15.381 0.069,15.319 0.051,15.255 C0.034,15.189 0.016,15.125 0.012,15.058 C0.011,15.037 -0.000,15.020 -0.000,14.999 L-0.000,0.999 C-0.000,0.978 0.011,0.961 0.012,0.940 C0.016,0.872 0.034,0.809 0.052,0.743 C0.069,0.679 0.084,0.617 0.113,0.559 C0.122,0.539 0.122,0.518 0.133,0.499 C0.156,0.458 0.194,0.434 0.222,0.398 C0.260,0.347 0.297,0.299 0.344,0.257 C0.398,0.209 0.457,0.174 0.520,0.139 C0.568,0.112 0.614,0.085 0.668,0.066 C0.738,0.041 0.808,0.031 0.882,0.023 C0.922,0.018 0.958,-0.001 1.000,-0.001 C1.020,-0.001 1.037,0.009 1.057,0.010 C1.115,0.014 1.169,0.030 1.226,0.045 C1.307,0.064 1.384,0.085 1.456,0.122 C1.466,0.128 1.477,0.127 1.487,0.133 L13.504,7.133 C13.522,7.144 13.531,7.161 13.548,7.173 C13.604,7.209 13.649,7.256 13.697,7.305 C13.744,7.353 13.791,7.398 13.827,7.454 C13.839,7.471 13.856,7.481 13.867,7.499 C13.888,7.537 13.890,7.578 13.906,7.616 C13.933,7.680 13.957,7.742 13.971,7.811 C13.983,7.875 13.984,7.935 13.984,7.999 C13.984,8.063 13.983,8.124 13.971,8.188 ZM2.000,13.257 L11.026,7.999 L2.000,2.741 L2.000,13.257 Z"/>
    <path fill="url(#PSgrad_0)"
          d="M13.971,8.188 C13.957,8.256 13.933,8.318 13.906,8.382 C13.890,8.421 13.888,8.462 13.867,8.499 C13.856,8.517 13.839,8.527 13.827,8.544 C13.791,8.600 13.744,8.645 13.696,8.693 C13.649,8.741 13.604,8.789 13.549,8.825 C13.532,8.836 13.522,8.855 13.504,8.865 L1.487,15.865 C1.477,15.871 1.466,15.870 1.456,15.876 C1.384,15.913 1.308,15.934 1.227,15.953 C1.170,15.968 1.115,15.984 1.056,15.987 C1.037,15.989 1.020,15.999 1.000,15.999 C0.958,15.999 0.923,15.980 0.883,15.975 C0.809,15.967 0.738,15.957 0.667,15.932 C0.614,15.913 0.568,15.886 0.520,15.859 C0.457,15.824 0.399,15.789 0.344,15.741 C0.297,15.699 0.260,15.651 0.221,15.600 C0.194,15.564 0.156,15.540 0.133,15.499 C0.122,15.480 0.122,15.459 0.113,15.440 C0.084,15.381 0.069,15.319 0.051,15.255 C0.034,15.189 0.016,15.125 0.012,15.058 C0.011,15.037 -0.000,15.020 -0.000,14.999 L-0.000,0.999 C-0.000,0.978 0.011,0.961 0.012,0.940 C0.016,0.872 0.034,0.809 0.052,0.743 C0.069,0.679 0.084,0.617 0.113,0.559 C0.122,0.539 0.122,0.518 0.133,0.499 C0.156,0.458 0.194,0.434 0.222,0.398 C0.260,0.347 0.297,0.299 0.344,0.257 C0.398,0.209 0.457,0.174 0.520,0.139 C0.568,0.112 0.614,0.085 0.668,0.066 C0.738,0.041 0.808,0.031 0.882,0.023 C0.922,0.018 0.958,-0.001 1.000,-0.001 C1.020,-0.001 1.037,0.009 1.057,0.010 C1.115,0.014 1.169,0.030 1.226,0.045 C1.307,0.064 1.384,0.085 1.456,0.122 C1.466,0.128 1.477,0.127 1.487,0.133 L13.504,7.133 C13.522,7.144 13.531,7.161 13.548,7.173 C13.604,7.209 13.649,7.256 13.697,7.305 C13.744,7.353 13.791,7.398 13.827,7.454 C13.839,7.471 13.856,7.481 13.867,7.499 C13.888,7.537 13.890,7.578 13.906,7.616 C13.933,7.680 13.957,7.742 13.971,7.811 C13.983,7.875 13.984,7.935 13.984,7.999 C13.984,8.063 13.983,8.124 13.971,8.188 ZM2.000,13.257 L11.026,7.999 L2.000,2.741 L2.000,13.257 Z"/>
</svg>