<?xml version="1.0" encoding="utf-8"?>
<!-- Generator: Adobe Illustrator 21.0.0, SVG Export Plug-In . SVG Version: 6.00 Build 0)  -->
<svg version="1.1" id="Слой_1" xmlns="http://www.w3.org/2000/svg" xmlns:xlink="http://www.w3.org/1999/xlink" x="0px" y="0px"
	 viewBox="0 0 30 30" style="enable-background:new 0 0 30 30;" xml:space="preserve">

<title>tw</title>
<g id="Слой_2">
	<g id="Isolation_Mode">
		<path class="st0" d="M15,0C6.7,0,0,6.7,0,15s6.7,15,15,15s15-6.7,15-15S23.3,0,15,0z M22.1,12.3v0.5c0,0.7-0.1,1.4-0.2,2.2
			c-0.9,4.1-4.4,8-10.1,8c-2,0-3.9-0.6-5.6-1.6c0.3,0,0.6,0.1,0.9,0.1c1.6,0,3.2-0.5,4.5-1.5c-1.6,0-2.9-1-3.4-2.5
			c0.2,0.1,0.5,0.1,0.7,0.1c0.3,0,0.6-0.1,1-0.1c-1.2-0.2-2.2-1.1-2.7-2.2c-0.2-0.4-0.2-0.9-0.2-1.3v-0.1C7.4,14,8,14.1,8.5,14.2
			c-1-0.7-1.6-1.8-1.6-3c0-0.6,0.2-1.3,0.5-1.8c1.9,2.2,4.6,3.6,7.5,3.8c-0.1-0.3-0.1-0.6-0.1-0.9c0-2,1.7-3.6,3.6-3.5
			c1,0,2,0.4,2.7,1.1c0.8-0.2,1.6-0.5,2.3-0.9c-0.3,0.8-0.9,1.6-1.6,2c0.7-0.1,1.4-0.3,2.1-0.6C23.4,11.1,22.8,11.8,22.1,12.3z"/>
	</g>
</g>
</svg>
