<svg
        xmlns="http://www.w3.org/2000/svg"
        xmlns:xlink="http://www.w3.org/1999/xlink">
    <defs>
        <filter id="Filter_0">
            <feFlood flood-color="rgb(225, 225, 225)" flood-opacity="1" result="floodOut" />
            <feComposite operator="atop" in="floodOut" in2="SourceGraphic" result="compOut" />
            <feBlend mode="normal" in="compOut" in2="SourceGraphic" />
        </filter>

    </defs>
    <g filter="url(#Filter_0)">
        <path fill-rule="evenodd"
              d="M13.669,14.327 C13.193,14.780 12.561,15.006 11.772,15.006 L3.227,15.006 C2.439,15.006 1.806,14.780 1.331,14.327 C0.855,13.875 0.617,13.257 0.617,12.475 C0.617,12.129 0.628,11.792 0.651,11.463 C0.674,11.133 0.719,10.779 0.788,10.397 C0.856,10.016 0.943,9.662 1.047,9.336 C1.151,9.010 1.292,8.693 1.467,8.383 C1.643,8.074 1.845,7.810 2.074,7.592 C2.302,7.373 2.580,7.198 2.910,7.068 C3.239,6.937 3.602,6.873 4.000,6.873 C4.058,6.873 4.195,6.943 4.410,7.083 C4.625,7.223 4.868,7.379 5.138,7.552 C5.409,7.725 5.761,7.881 6.194,8.021 C6.628,8.161 7.063,8.231 7.499,8.231 C7.936,8.231 8.371,8.161 8.805,8.021 C9.238,7.881 9.590,7.725 9.861,7.552 C10.131,7.379 10.374,7.223 10.589,7.083 C10.804,6.943 10.941,6.873 10.999,6.873 C11.397,6.873 11.760,6.937 12.090,7.068 C12.419,7.198 12.697,7.373 12.926,7.592 C13.154,7.810 13.356,8.074 13.532,8.383 C13.708,8.693 13.848,9.010 13.952,9.336 C14.057,9.662 14.143,10.016 14.211,10.397 C14.280,10.779 14.325,11.134 14.348,11.463 C14.371,11.792 14.383,12.129 14.383,12.475 C14.383,13.257 14.145,13.875 13.669,14.327 ZM7.500,7.498 C6.464,7.498 5.579,7.132 4.845,6.398 C4.112,5.665 3.746,4.780 3.746,3.744 C3.746,2.708 4.112,1.823 4.845,1.090 C5.579,0.357 6.464,-0.010 7.500,-0.010 C8.536,-0.010 9.421,0.357 10.154,1.090 C10.888,1.823 11.254,2.708 11.254,3.744 C11.254,4.780 10.888,5.665 10.154,6.398 C9.421,7.132 8.536,7.498 7.500,7.498 Z"/>
    </g>
</svg>