<?xml version="1.0" encoding="utf-8"?>
<!-- Generator: Adobe Illustrator 21.0.0, SVG Export Plug-In . SVG Version: 6.00 Build 0)  -->
<svg version="1.1" id="Слой_1" xmlns="http://www.w3.org/2000/svg" xmlns:xlink="http://www.w3.org/1999/xlink" x="0px" y="0px"
	 viewBox="0 0 30 30" style="enable-background:new 0 0 30 30;" xml:space="preserve">

<title>vk</title>
<g id="Слой_2">
	<g id="Isolation_Mode">
		<path class="st0" d="M15,0C6.7,0,0,6.7,0,15s6.7,15,15,15s15-6.7,15-15S23.3,0,15,0z M23.8,20.9c-0.1,0.7-1.2,0.5-2.2,0.6
			c-0.9,0-1.8,0-2.2-0.2c-0.7-0.3-2.4-2.6-2.9-2.5c-1,0.2-0.6,2.4-1,2.5c-0.5,0.2-1.9,0.2-2.4,0.1C10.2,20.9,8.5,19,7,16.5
			c-1.9-3-3.1-5.3-2.6-5.6c0.5-0.3,2-0.2,3.6-0.2c0.5,0,1.8,3.3,2.1,3.8c1.4,2.2,1.8,0.6,1.8,0.4c0.4-3.9-0.6-3.8-1.2-3.8
			c0.4-1.3,3.3-1,3.3-1c0.5,0.1,0.9,0.3,1.3,0.5c0.2,0.1,0.3,0.4,0.3,1.4c-0.1,1.6-0.2,3.6,0.5,3.6c0.5,0,1.3-1.2,2-2.5
			c0.6-1.1,1-2.2,1.2-2.3s1.2-0.1,2.1-0.1c0.9,0,1.9,0,2.1,0.2c0.5,0.4-0.4,1.8-1.1,2.9c-0.6,0.9-1.9,2.1-1.8,2.8
			C20.8,17.5,24,19.4,23.8,20.9z"/>
	</g>
</g>
</svg>
