<?xml version="1.0" encoding="utf-8"?>
<!-- Generator: Adobe Illustrator 21.0.0, SVG Export Plug-In . SVG Version: 6.00 Build 0)  -->
<svg version="1.1" id="Ğ¡Ğ»Ğ¾Ğ¹_1" xmlns="http://www.w3.org/2000/svg" xmlns:xlink="http://www.w3.org/1999/xlink" x="0px" y="0px"
	 viewBox="0 0 30 30" style="enable-background:new 0 0 30 30;" xml:space="preserve">

<title>insta</title>
<g>
	<polygon class="st0" points="12.9,12 18.6,15.3 12.9,18.4 	"/>
	<path class="st0" d="M15,0C6.8,0,0,6.8,0,15s6.8,15,15,15s15-6.8,15-15S23.3,0,15,0z M23.6,15.7c0,1.5-0.2,3-0.2,3
		s-0.2,1.3-0.7,1.8c-0.6,0.7-1.4,0.8-1.7,0.8c-2.4,0.2-6,0.2-6,0.2s-4.4,0-5.8-0.2c-0.4-0.1-1.3-0.1-1.9-0.8
		c-0.5-0.5-0.7-1.8-0.7-1.8s-0.2-1.5-0.2-3v-1.4c0-1.5,0.2-3.1,0.2-3.1S6.8,10,7.3,9.5C7.9,8.7,8.7,8.7,9,8.7
		c1.2-0.1,2.7-0.1,3.9-0.2c1.2,0,2.1,0,2.1,0s3.6,0,6,0.2c0.3,0,1.1,0,1.7,0.8c0.5,0.5,0.7,1.8,0.7,1.8s0.2,1.5,0.2,3V15.7z"/>
</g>
</svg>
