<svg 
 xmlns="http://www.w3.org/2000/svg"
 xmlns:xlink="http://www.w3.org/1999/xlink"
 width="162px" height="47px">
<path fill-rule="evenodd"  fill="rgb(255, 255, 255)"
 d="M160.032,35.596 L160.032,31.401 C160.032,30.182 159.371,29.256 158.112,29.256 C156.903,29.256 156.080,30.280 156.080,31.499 L156.080,35.596 L154.128,35.596 L154.128,27.565 L155.886,27.565 L156.015,28.654 C156.822,27.858 157.628,27.452 158.629,27.452 C160.500,27.452 162.000,28.865 162.000,31.385 L162.000,35.596 L160.032,35.596 ZM148.676,35.774 C146.095,35.774 144.546,33.904 144.546,31.597 C144.546,29.304 146.127,27.418 148.660,27.418 C151.193,27.418 152.822,29.304 152.822,31.597 C152.822,33.904 151.257,35.774 148.676,35.774 ZM148.676,29.224 C147.256,29.224 146.514,30.394 146.514,31.597 C146.514,32.816 147.240,33.954 148.676,33.954 C150.112,33.954 150.837,32.816 150.837,31.597 C150.837,30.394 149.999,29.224 148.676,29.224 ZM140.820,25.322 C140.820,23.778 143.143,23.778 143.143,25.322 C143.143,26.866 140.820,26.866 140.820,25.322 ZM138.353,33.904 C138.659,33.904 139.014,33.807 139.304,33.661 L139.853,35.352 C139.288,35.580 138.820,35.677 138.224,35.693 C136.497,35.758 135.368,34.766 135.368,32.767 L135.368,29.304 L133.884,29.304 L133.884,27.598 L135.368,27.598 L135.368,25.533 L137.336,25.322 L137.336,27.598 L139.530,27.598 L139.530,29.304 L137.320,29.304 L137.320,32.767 C137.320,33.531 137.740,33.904 138.353,33.904 ZM131.288,34.425 C130.836,35.368 129.594,35.823 128.707,35.840 C126.351,35.855 124.609,34.393 124.609,31.580 C124.609,28.817 126.432,27.370 128.755,27.387 C129.820,27.387 130.836,27.890 131.288,28.688 L131.352,27.582 L133.240,27.582 L133.240,35.596 L131.384,35.596 L131.288,34.425 ZM128.932,29.158 C127.626,29.158 126.577,30.052 126.577,31.580 C126.577,33.108 127.626,34.019 128.932,34.019 C132.030,34.019 132.030,29.158 128.932,29.158 ZM121.916,35.612 L115.979,27.923 L115.979,35.596 L113.850,35.596 L113.850,24.217 L115.576,24.217 L121.109,31.271 L121.109,24.200 L123.239,24.200 L123.239,35.596 L121.916,35.596 L121.916,35.612 ZM109.728,34.425 C109.276,35.368 108.034,35.823 107.146,35.840 C104.791,35.855 103.049,34.393 103.049,31.580 C103.049,28.817 104.872,27.370 107.195,27.387 C108.259,27.387 109.276,27.890 109.728,28.688 L109.792,27.582 L111.680,27.582 L111.680,35.596 L109.824,35.596 L109.728,34.425 ZM107.372,29.158 C106.065,29.158 105.017,30.052 105.017,31.580 C105.017,33.108 106.065,34.019 107.372,34.019 C110.470,34.019 110.470,29.158 107.372,29.158 ZM99.565,25.322 C99.565,23.778 101.888,23.778 101.888,25.322 C101.888,26.866 99.565,26.866 99.565,25.322 ZM96.065,34.490 C95.452,35.449 94.468,35.774 93.500,35.774 C91.161,35.774 89.402,34.214 89.402,31.580 C89.402,28.817 91.128,27.387 93.451,27.387 C94.290,27.387 95.597,27.841 96.065,28.671 L96.065,24.233 L98.033,24.233 L98.033,35.596 L96.194,35.596 L96.065,34.490 ZM93.629,29.240 C92.370,29.240 91.370,30.133 91.370,31.580 C91.370,32.979 92.370,33.938 93.629,33.938 C94.871,33.938 95.936,33.027 95.936,31.580 C95.936,30.182 94.871,29.240 93.629,29.240 ZM82.046,32.296 C82.176,33.288 83.031,34.002 84.418,34.002 C85.144,34.002 86.096,33.726 86.548,33.254 L87.806,34.506 C86.967,35.384 85.596,35.806 84.386,35.806 C81.643,35.806 80.014,34.100 80.014,31.531 C80.014,29.093 81.659,27.338 84.241,27.338 C86.903,27.338 88.564,28.995 88.258,32.296 L82.046,32.296 ZM84.305,29.093 C83.240,29.093 82.369,29.614 82.079,30.653 L86.370,30.653 C86.241,29.614 85.434,29.093 84.305,29.093 ZM76.386,27.354 L72.707,32.296 L72.288,32.296 L68.690,27.338 L68.690,35.612 L66.561,35.612 L66.561,24.233 L69.013,24.233 L72.546,29.125 L76.079,24.233 L78.515,24.233 L78.515,35.612 L76.386,35.612 L76.386,27.354 ZM30.018,45.999 L29.526,46.043 L29.526,45.999 L29.508,45.999 C29.332,31.364 31.847,30.014 31.847,30.014 C32.095,29.895 43.176,24.340 43.176,24.340 C43.176,24.340 43.176,24.340 43.425,23.501 C43.672,22.661 42.845,22.913 42.845,22.913 C40.679,23.907 40.613,22.409 40.613,22.409 C38.545,25.684 38.921,24.866 38.628,25.096 C38.350,25.314 28.539,28.455 28.539,28.455 C27.702,28.755 27.547,28.203 27.547,28.203 C29.780,26.355 27.547,23.501 27.547,23.501 C24.570,20.563 22.751,25.180 22.751,25.180 C10.511,15.104 12.083,12.334 12.083,12.334 C12.745,10.823 11.504,11.662 11.504,11.662 C9.850,12.166 9.436,10.152 9.436,10.152 C9.106,9.731 8.693,10.152 8.693,10.152 L8.693,11.243 C8.882,12.199 10.429,14.686 10.429,14.686 C12.000,16.448 19.939,26.355 19.939,26.355 C23.557,32.789 22.216,44.004 21.835,46.663 L21.816,46.663 L21.816,46.742 L19.027,46.995 L3.116,32.381 L-0.001,13.119 L15.109,-0.000 L30.825,4.929 L46.258,10.129 L55.608,27.234 L52.656,38.525 L30.018,45.999 ZM21.816,46.828 L21.811,46.828 C21.813,46.818 21.815,46.806 21.816,46.796 L21.816,46.828 ZM101.710,35.596 L99.742,35.596 L99.742,27.549 L101.710,27.549 L101.710,35.596 ZM142.966,35.596 L140.998,35.596 L140.998,27.549 L142.966,27.549 L142.966,35.596 Z"/>
</svg>