<svg xmlns="http://www.w3.org/2000/svg" width="162" height="47"><path fill-rule="evenodd" fill="#FFF" d="M160.032 35.596v-4.195c0-1.219-.661-2.145-1.92-2.145-1.209 0-2.032 1.024-2.032 2.243v4.097h-1.952v-8.031h1.758l.129 1.089c.807-.796 1.613-1.202 2.614-1.202 1.871 0 3.371 1.413 3.371 3.933v4.211h-1.968zm-11.356.178c-2.581 0-4.13-1.87-4.13-4.177 0-2.293 1.581-4.179 4.114-4.179s4.162 1.886 4.162 4.179c0 2.307-1.565 4.177-4.146 4.177zm0-6.55c-1.42 0-2.162 1.17-2.162 2.373 0 1.219.726 2.357 2.162 2.357s2.161-1.138 2.161-2.357c0-1.203-.838-2.373-2.161-2.373zm-7.856-3.902c0-1.544 2.323-1.544 2.323 0s-2.323 1.544-2.323 0zm-2.467 8.582c.306 0 .661-.097.951-.243l.549 1.691a4.357 4.357 0 0 1-1.629.341c-1.727.065-2.856-.927-2.856-2.926v-3.463h-1.484v-1.706h1.484v-2.065l1.968-.211v2.276h2.194v1.706h-2.21v3.463c0 .764.42 1.137 1.033 1.137zm-7.065.521c-.452.943-1.694 1.398-2.581 1.415-2.356.015-4.098-1.447-4.098-4.26 0-2.763 1.823-4.21 4.146-4.193 1.065 0 2.081.503 2.533 1.301l.064-1.106h1.888v8.014h-1.856l-.096-1.171zm-2.356-5.267c-1.306 0-2.355.894-2.355 2.422s1.049 2.439 2.355 2.439c3.098 0 3.098-4.861 0-4.861zm-7.016 6.454l-5.937-7.689v7.673h-2.129V24.217h1.726l5.533 7.054V24.2h2.13v11.396h-1.323v.016zm-12.188-1.187c-.452.943-1.694 1.398-2.582 1.415-2.355.015-4.097-1.447-4.097-4.26 0-2.763 1.823-4.21 4.146-4.193 1.064 0 2.081.503 2.533 1.301l.064-1.106h1.888v8.014h-1.856l-.096-1.171zm-2.356-5.267c-1.307 0-2.355.894-2.355 2.422s1.048 2.439 2.355 2.439c3.098 0 3.098-4.861 0-4.861zm-7.807-3.836c0-1.544 2.323-1.544 2.323 0s-2.323 1.544-2.323 0zm-3.5 9.168c-.613.959-1.597 1.284-2.565 1.284-2.339 0-4.098-1.56-4.098-4.194 0-2.763 1.726-4.193 4.049-4.193.839 0 2.146.454 2.614 1.284v-4.438h1.968v11.363h-1.839l-.129-1.106zm-2.436-5.25c-1.259 0-2.259.893-2.259 2.34 0 1.399 1 2.358 2.259 2.358 1.242 0 2.307-.911 2.307-2.358 0-1.398-1.065-2.34-2.307-2.34zm-11.583 3.056c.13.992.985 1.706 2.372 1.706.726 0 1.678-.276 2.13-.748l1.258 1.252c-.839.878-2.21 1.3-3.42 1.3-2.743 0-4.372-1.706-4.372-4.275 0-2.438 1.645-4.193 4.227-4.193 2.662 0 4.323 1.657 4.017 4.958h-6.212zm2.259-3.203c-1.065 0-1.936.521-2.226 1.56h4.291c-.129-1.039-.936-1.56-2.065-1.56zm-7.919-1.739l-3.679 4.942h-.419l-3.598-4.958v8.274h-2.129V24.233h2.452l3.533 4.892 3.533-4.892h2.436v11.379h-2.129v-8.258zM30.018 45.999l-.492.044v-.044h-.018c-.176-14.635 2.339-15.985 2.339-15.985.248-.119 11.329-5.674 11.329-5.674l.249-.839c.247-.84-.58-.588-.58-.588-2.166.994-2.232-.504-2.232-.504-2.068 3.275-1.692 2.457-1.985 2.687-.278.218-10.089 3.359-10.089 3.359-.837.3-.992-.252-.992-.252 2.233-1.848 0-4.702 0-4.702-2.977-2.938-4.796 1.679-4.796 1.679-12.24-10.076-10.668-12.846-10.668-12.846.662-1.511-.579-.672-.579-.672-1.654.504-2.068-1.51-2.068-1.51-.33-.421-.743 0-.743 0v1.091c.189.956 1.736 3.443 1.736 3.443 1.571 1.762 9.51 11.669 9.51 11.669 3.618 6.434 2.277 17.649 1.896 20.308h-.019v.079l-2.789.253L3.116 32.381-.001 13.119 15.109 0l15.716 4.929 15.433 5.2 9.35 17.105-2.952 11.291-22.638 7.474zm-8.202.829h-.005a.354.354 0 0 0 .005-.032v.032zm79.894-11.232h-1.968v-8.047h1.968v8.047zm41.256 0h-1.968v-8.047h1.968v8.047z"/></svg>