<svg id="SVGDoc" width="24" height="26" xmlns="http://www.w3.org/2000/svg" version="1.1" xmlns:xlink="http://www.w3.org/1999/xlink" xmlns:avocode="https://avocode.com/" viewBox="0 0 24 26"><defs><path d="M518.84398,1215.8354c0.0358,0.63759 0.06943,1.27541 0.10823,1.913c0.02695,0.44259 0.05407,0.88551 0.09371,1.3271c0.04197,0.46698 0.0993,0.93239 0.14853,1.3987c0.00801,0.07597 0.01018,0.15271 0.01185,0.22913c0.00184,0.08805 0.04072,0.13 0.13118,0.13761c0.41506,0.03457 0.82937,0.07955 1.24477,0.10908c0.44243,0.03144 0.8857,0.05023 1.32872,0.07373c0.53139,0.02831 1.06269,0.05661 1.59416,0.08313c0.09104,0.00448 0.18241,-0.00078 0.27362,-0.00022c0.12484,0.00067 0.24967,0.00615 0.37442,0.00336c0.18575,-0.00414 0.37192,-0.00772 0.55667,-0.02495c0.04982,-0.00459 0.10231,-0.05001 0.14169,-0.08894c0.42816,-0.42379 0.85199,-0.85195 1.28082,-1.27496c0.46088,-0.45467 0.93009,-0.90084 1.38788,-1.35853c0.5172,-0.51721 1.02589,-1.04293 1.53792,-1.5654c0.25343,-0.25866 0.50176,-0.52247 0.75995,-0.77621c0.21721,-0.21335 0.44777,-0.41283 0.66741,-0.62361c0.09271,-0.08894 0.17048,-0.19344 0.25918,-0.28685c0.0706,-0.0744 0.14887,-0.14141 0.22147,-0.21402c0.19935,-0.19948 0.39604,-0.40153 0.59673,-0.59967c0.10848,-0.10696 0.22514,-0.20563 0.33412,-0.31214c0.3055,-0.29827 0.61225,-0.59553 0.91257,-0.89916c0.55492,-0.56084 1.10358,-1.12807 1.65875,-1.68857c0.32419,-0.32724 0.65347,-0.64934 0.98525,-0.96864c0.25351,-0.24389 0.57027,-0.27701 0.88512,-0.19198c0.26911,0.07272 0.46571,0.26672 0.57803,0.53243c0.16748,0.39638 0.07644,0.73907 -0.21838,1.0361c-0.2445,0.24624 -0.49267,0.48879 -0.7375,0.7347c-0.5439,0.54608 -1.08606,1.09383 -1.63013,1.63968c-0.39554,0.39672 -0.79141,0.7931 -1.18995,1.18669c-0.44969,0.44416 -0.90598,0.8816 -1.35292,1.32844c-0.37459,0.37446 -0.73625,0.76211 -1.11067,1.13668c-0.2964,0.2967 -0.60824,0.57774 -0.90464,0.87444c-0.25827,0.25844 -0.50268,0.53108 -0.75711,0.79366c-0.13235,0.1366 -0.27537,0.2628 -0.40989,0.3975c-0.43701,0.43767 -0.87235,0.87712 -1.30827,1.31613c-0.21663,0.21805 -0.43192,0.43744 -0.64996,0.65404c-0.07026,0.0697 -0.15154,0.12821 -0.22063,0.19892c-0.16164,0.16547 -0.32619,0.32881 -0.47623,0.50468c-0.17849,0.20921 -0.41406,0.28685 -0.66882,0.33463c-0.12642,0.02383 -0.25159,0.0546 -0.37801,0.07865c-0.05182,0.00985 -0.10548,0.01376 -0.15838,0.01398c-0.31126,0.00112 -0.62259,0.00515 -0.93377,-0.00123c-0.33053,-0.00682 -0.66081,-0.02417 -0.99126,-0.03692c-0.01135,-0.00045 -0.0227,-0.00246 -0.03405,-0.00302c-0.36308,-0.01611 -0.72615,-0.03222 -1.08923,-0.048c-0.19368,-0.00839 -0.39779,0.02014 -0.57887,-0.03222c-0.31693,-0.0914 -0.63428,-0.03267 -0.94937,-0.06299c-0.12809,-0.01231 -0.25359,-0.05381 -0.38168,-0.06366c-0.20753,-0.01611 -0.41673,-0.01052 -0.62435,-0.02629c-0.16522,-0.01264 -0.32861,-0.04822 -0.49367,-0.06433c-0.10114,-0.00973 -0.20453,0.00436 -0.306,-0.00313c-0.33537,-0.02506 -0.59731,-0.1695 -0.76479,-0.47503c-0.12542,-0.2289 -0.18734,-0.46933 -0.1976,-0.73112c-0.01043,-0.26683 -0.04715,-0.53254 -0.07026,-0.79892c-0.03805,-0.43789 -0.0751,-0.876 -0.11132,-1.31401c-0.03121,-0.37736 -0.06701,-0.7545 -0.08979,-1.13243c-0.04398,-0.72911 -0.07944,-1.45878 -0.11991,-2.188c-0.02362,-0.42502 -0.0035,-0.84748 0.06409,-1.26769c0.00484,-0.03021 0.01035,-0.06164 0.00693,-0.0914c-0.02829,-0.24647 0.10723,-0.42111 0.25485,-0.58904c0.09321,-0.10606 0.18784,-0.21145 0.28906,-0.30945c0.12008,-0.11624 0.25393,-0.2185 0.371,-0.33742c0.13593,-0.13817 0.25418,-0.29379 0.39061,-0.43129c0.33545,-0.3381 0.68017,-0.6669 1.01538,-1.00511c2.11487,-2.13396 4.22757,-4.27016 6.34218,-6.40434c1.05076,-1.0606 2.10469,-2.11796 3.1557,-3.17823c0.31668,-0.31941 0.62526,-0.64699 0.94386,-0.9645c0.14228,-0.14186 0.2929,-0.27511 0.48274,-0.35779c0.3196,-0.13906 0.62151,-0.08245 0.92384,0.05572c0.41498,0.18952 0.71731,0.52281 1.04533,0.82241c0.27254,0.24904 0.53948,0.50457 0.8015,0.7648c0.28697,0.28506 0.56427,0.58009 0.84823,0.86828c0.12033,0.12206 0.25076,0.23405 0.37009,0.35689c0.48374,0.49819 0.96856,0.99527 1.44521,1.50017c0.21437,0.22711 0.42357,0.46172 0.611,0.71132c0.17991,0.23953 0.33913,0.49528 0.38319,0.8072c0.0524,0.37121 -0.063,0.67641 -0.32169,0.93675c-1.109,1.11587 -2.21801,2.23174 -3.32534,3.34929c-0.30617,0.30901 -0.60465,0.62573 -0.9104,0.93519c-0.15237,0.15417 -0.31576,0.29715 -0.46939,0.45008c-0.25343,0.25228 -0.50377,0.50781 -0.75411,0.76323c-0.32552,0.33228 -0.64654,0.66925 -0.97582,0.99773c-0.23991,0.23942 -0.49509,0.46317 -0.73383,0.70371c-0.17407,0.17531 -0.32786,0.37099 -0.49901,0.54954c-0.17941,0.18728 -0.36758,0.36618 -0.55392,0.54664c-0.30967,0.29961 -0.62577,0.59273 -0.92993,0.89793c-0.25017,0.25105 -0.48265,0.52001 -0.73107,0.77296c-0.22155,0.22543 -0.44485,0.45109 -0.68535,0.65527c-0.15963,0.1356 -0.35565,0.20854 -0.5777,0.20093c-0.42566,-0.01443 -0.85207,-0.0085 -1.27757,-0.02674c-0.34138,-0.01466 -0.68192,-0.05023 -1.02247,-0.08111c-0.17741,-0.016 -0.35615,-0.03077 -0.53039,-0.06578c-0.4048,-0.08156 -0.6795,-0.41406 -0.71539,-0.82935c-0.04656,-0.53701 -0.10698,-1.07291 -0.15154,-1.61015c-0.01711,-0.20552 -0.00693,-0.41339 -0.00893,-0.62014c-0.00159,-0.15618 -0.0126,-0.31292 -0.00192,-0.46821c0.0227,-0.3297 0.18208,-0.59284 0.4159,-0.81671c0.11541,-0.11065 0.22497,-0.22745 0.33846,-0.34c0.36808,-0.36517 0.73884,-0.72743 1.10441,-1.09506c0.31426,-0.31594 0.62051,-0.63994 0.93452,-0.95611c0.32519,-0.32735 0.65781,-0.6471 0.983,-0.97457c0.34914,-0.35163 0.6911,-0.71042 1.04033,-1.06195c0.34372,-0.34593 0.69494,-0.68425 1.03866,-1.03017c0.32511,-0.32724 0.64079,-0.66411 0.96848,-0.98867c0.17807,-0.17632 0.35915,-0.3551 0.56276,-0.4983c0.28038,-0.19702 0.5989,-0.17889 0.88837,-0.02506c0.31034,0.16491 0.49,0.4342 0.49909,0.8053c0.00601,0.24356 -0.06601,0.45456 -0.22981,0.62752c-0.31451,0.33205 -0.63494,0.65863 -0.95605,0.9843c-0.39595,0.40153 -0.79633,0.79847 -1.19237,1.2c-0.28355,0.28741 -0.55984,0.58221 -0.84498,0.86817c-0.60357,0.60515 -1.21264,1.20481 -1.81588,1.81041c-0.304,0.3052 -0.59581,0.6226 -0.90114,0.92635c-0.29415,0.29267 -0.59764,0.57584 -0.89905,0.86101c-0.0867,0.08212 -0.10039,0.16804 -0.08119,0.28842c0.02745,0.17151 0.01085,0.34973 0.02178,0.52448c0.01143,0.18281 0.03279,0.36506 0.05082,0.54742c0.00759,0.07764 0.05825,0.11456 0.12959,0.12161c0.13235,0.0132 0.26494,0.02786 0.39771,0.03177c0.21237,0.00627 0.42499,0.00425 0.63745,0.00582c0.01135,0 0.02503,-0.00313 0.03388,0.0019c0.17098,0.09711 0.26644,-0.02327 0.36867,-0.12765c0.55258,-0.56386 1.10366,-1.12952 1.65908,-1.69059c0.59539,-0.60157 1.19687,-1.19698 1.79226,-1.79844c0.32753,-0.33082 0.64613,-0.67048 0.97249,-1.00243c0.18951,-0.19288 0.38869,-0.37602 0.57954,-0.56744c0.64387,-0.64587 1.28608,-1.29342 1.92878,-1.94041c0.56143,-0.56521 1.12261,-1.13075 1.68428,-1.69573c0.2929,-0.29457 0.58404,-0.59105 0.88211,-0.88037c0.0766,-0.0744 0.07702,-0.13302 0.01227,-0.20418c-0.12575,-0.13806 -0.24925,-0.27846 -0.3801,-0.41149c-0.85357,-0.86851 -1.70732,-1.73679 -2.56448,-2.60172c-0.24141,-0.24367 -0.49667,-0.47336 -0.74009,-0.71512c-0.07218,-0.0716 -0.11541,-0.0546 -0.17749,0.00828c-0.59589,0.60291 -1.19362,1.20392 -1.7911,1.80504c-0.76979,0.77453 -1.54109,1.54738 -2.30938,2.32337c-0.35915,0.36282 -0.71088,0.73314 -1.06962,1.0964c-0.30525,0.30923 -0.61742,0.61141 -0.92334,0.91986c-1.14413,1.15424 -2.28693,2.30994 -3.4304,3.46486c-0.39662,0.40052 -0.79466,0.79948 -1.1902,1.20101c-0.14411,0.14634 -0.27913,0.30185 -0.42499,0.44628c-0.16439,0.16278 -0.3327,0.32198 -0.50602,0.47503c-0.15488,0.13671 -0.246,0.28988 -0.21654,0.50826c0.01677,0.12418 0.003,0.2524 0.003,0.37882c-0.00592,0.00034 -0.01193,0.00078 -0.01786,0.00112z" id="Path-0"/></defs><desc>Generated with Avocode.</desc><g transform="matrix(1,0,0,1,-515,-1199)"><g><title>Shape 20</title><use xlink:href="#Path-0" fill="#0053a7" fill-opacity="1"/></g></g></svg>