<svg id="SVGDoc" width="34" height="36" xmlns="http://www.w3.org/2000/svg" version="1.1" xmlns:xlink="http://www.w3.org/1999/xlink" xmlns:avocode="https://avocode.com/" viewBox="0 0 34 36"><defs><path d="M1018.28123,5118.91838l1.40599,-6.31316c0.31551,-1.42574 1.69697,-2.60019 3.08535,-2.60019h6.04078c0.20002,0 0.35081,0.21892 0.31201,0.40022l-1.9282,8.6565c-0.03163,0.14553 -0.15404,0.24389 -0.29807,0.24389l-8.31987,-0.00154c-0.2067,0 -0.34004,-0.19733 -0.29799,-0.38573zM1018.89473,5143.00149h-5.59551c-0.09805,0 -0.1825,-0.04132 -0.24199,-0.1184c-0.05975,-0.07893 -0.08053,-0.17051 -0.05975,-0.26702l4.00059,-17.93615c0.03171,-0.14399 0.15446,-0.24204 0.29807,-0.24204h8.31987c0.09813,0 0.18233,0.03916 0.24199,0.11624c0.0595,0.07893 0.08036,0.17236 0.0595,0.26702l-3.3765,15.16792c-0.36441,1.65514 -2.03,3.01243 -3.64628,3.01243zM1040.15907,5124.82114l-1.43077,6.33536c-0.32235,1.41834 -1.79143,2.55825 -3.17973,2.55825l-5.96058,0.00925c-0.0978,0 -0.18183,-0.04286 -0.24158,-0.11994c-0.06309,-0.07708 -0.08061,-0.17051 -0.0595,-0.26733l1.95632,-8.6676c0.03163,-0.14553 0.15763,-0.24543 0.30149,-0.24543l8.31628,0.01203c0.09446,0 0.17883,0.04132 0.23849,0.1184c0.06309,0.07708 0.08036,0.16835 0.05958,0.26702zM1034.78061,5110.00504h6.21994c1.39164,0 2.26115,1.16396 1.93504,2.5857l-1.47225,6.46917c-0.03163,0.14399 -0.15805,0.2442 -0.30158,0.2442h-8.36176c-0.09855,0 -0.1825,-0.04317 -0.24208,-0.12025c-0.05966,-0.07708 -0.08078,-0.17051 -0.05966,-0.26548l1.98444,-8.66945c0.03146,-0.14523 0.15421,-0.24389 0.2979,-0.24389z" id="Path-0"/></defs><desc>Generated with Avocode.</desc><g transform="matrix(1,0,0,1,-1011,-5109)"><g><title>Shape 1 copy 6</title><use xlink:href="#Path-0" fill="#b7b6b6" fill-opacity="1"/></g></g></svg>