<svg id="SVGDoc" width="31" height="33" xmlns="http://www.w3.org/2000/svg" version="1.1" xmlns:xlink="http://www.w3.org/1999/xlink" xmlns:avocode="https://avocode.com/" viewBox="0 0 31 33"><defs><path d="M1222.99862,285.51171c-0.00008,4.51662 -0.00017,9.03325 0.00017,13.54987c0,0.24454 -0.03263,0.4771 -0.2001,0.6737c-0.2067,0.24278 -0.62134,0.34251 -0.90656,0.19996c-0.72048,-0.36011 -1.43753,-0.72683 -2.15709,-1.08895c-0.73458,-0.36974 -1.4715,-0.73496 -2.20549,-1.10596c-0.67967,-0.34343 -1.35667,-0.69222 -2.03526,-1.03791c-0.30425,-0.15504 -0.60632,-0.31502 -0.91616,-0.45816c-0.08637,-0.03989 -0.19702,-0.03788 -0.29649,-0.03805c-2.48137,-0.00235 -4.96265,-0.00243 -7.44401,-0.00277c-0.23624,-0.00008 -0.47297,0.00964 -0.70879,-0.00159c-0.16013,-0.00763 -0.31835,-0.0497 -0.47857,-0.06595c-0.14979,-0.01517 -0.30091,-0.02246 -0.45145,-0.02305c-0.64654,-0.00277 -1.30477,-0.07777 -1.93663,0.01802c-0.72023,0.10911 -1.43136,0.03671 -2.14541,0.06662c-0.33879,0.01425 -0.61024,-0.14406 -0.75294,-0.46251c-0.0459,-0.10232 -0.06042,-0.22669 -0.05891,-0.3405c0.00709,-0.53559 0.03814,-1.07102 0.0358,-1.60644c-0.00476,-1.1011 -0.02245,-2.2022 -0.04239,-3.30314c-0.00309,-0.16853 0.04548,-0.22409 0.21913,-0.21823c0.38218,0.01282 0.7652,0.00846 1.14764,0.00168c0.1356,-0.00235 0.17582,0.05053 0.17557,0.17808c-0.002,1.16974 0.00159,2.33939 -0.00108,3.50913c-0.00033,0.17725 -0.01711,0.35525 -0.03922,0.5314c-0.01853,0.14842 0.04982,0.19359 0.18208,0.18588c0.25727,-0.01508 0.5147,-0.04458 0.7718,-0.04266c0.40355,0.0031 0.80684,0.0362 1.21039,0.03922c0.26219,0.00193 0.52471,-0.04173 0.78682,-0.03922c0.69052,0.0067 1.38096,0.04215 2.07123,0.03981c2.2886,-0.00779 4.57712,-0.02933 6.86573,-0.03813c0.18692,-0.00067 0.19226,-0.08866 0.19218,-0.22753c-0.00192,-3.46999 -0.00134,-6.93999 -0.00125,-10.40998c0,-2.45705 0,-4.91402 0,-7.37099c0,-0.24823 -0.00017,-0.24848 -0.24934,-0.2484c-3.8317,0.00017 -7.66339,0.00034 -11.49501,0.00059c-0.05633,0 -0.11257,0.00218 -0.16881,0.00109c-0.09363,-0.00193 -0.13251,0.04433 -0.12759,0.13484c0.00242,0.04467 0.00017,0.0895 0.00017,0.13434c0.00008,1.34883 -0.00142,2.69765 0.00284,4.04648c0.00033,0.12478 -0.03355,0.16535 -0.16172,0.16308c-0.41064,-0.00729 -0.82145,-0.00545 -1.23217,-0.00042c-0.10965,0.00134 -0.14845,-0.03394 -0.14828,-0.14431c0.00292,-1.71824 0.00609,-3.43639 0.00067,-5.15462c-0.00117,-0.38248 0.3322,-0.73144 0.77755,-0.74385c0.28113,-0.00779 0.56268,-0.00453 0.84398,-0.00461c4.05108,-0.00084 8.10224,-0.00771 12.15332,0.00754c0.40138,0.00151 0.71388,-0.1573 1.04133,-0.32248c0.98033,-0.49444 1.95816,-0.99383 2.9374,-1.49037c0.97866,-0.4962 1.95774,-0.99165 2.93698,-1.4866c0.28505,-0.14406 0.56936,-0.29005 0.85791,-0.42681c0.39145,-0.18554 0.8106,-0.07626 1.02539,0.2939c0.08219,0.14171 0.11958,0.32876 0.11983,0.49528c0.00618,4.54453 0.00492,9.08914 0.00484,13.63367zM1221.41973,273.07031c-0.06651,0.0155 -0.08954,0.01643 -0.10815,0.0259c-1.0591,0.53752 -2.11779,1.07563 -3.17647,1.61382c-0.7894,0.40134 -1.56988,0.82136 -2.37263,1.19413c-0.28121,0.13057 -0.30358,0.30128 -0.30333,0.55763c0.00542,6.0784 0.00409,12.15671 0.00409,18.23511c0,0.05037 -0.01177,0.10484 0.00359,0.15009c0.01727,0.05079 0.04848,0.11389 0.09204,0.13635c0.86083,0.44307 1.72384,0.88212 2.58751,1.31966c1.04375,0.5288 2.08925,1.05409 3.132,1.58465c0.11257,0.05724 0.14102,0.02405 0.14019,-0.08489c-0.00142,-0.18462 -0.00075,-0.36932 -0.00075,-0.55403c0.00067,-7.97019 0.00125,-15.9403 0.00192,-23.91049c0,-0.08154 0,-0.16317 0,-0.26792zM1199.84605,289.15735c-1.0969,-0.00025 -2.19389,-0.00034 -3.2908,-0.00025c-0.85007,0.00008 -1.55503,-0.69658 -1.55177,-1.52683c0.00534,-1.35402 0.0106,-2.7083 -0.003,-4.06232c-0.00893,-0.88782 0.6634,-1.59471 1.60843,-1.59655c2.18822,-0.00411 4.37652,-0.00117 6.56474,-0.00067c0.24425,0.00008 0.25852,-0.01265 0.26044,-0.25342c0.00526,-0.65996 -0.00259,-1.32042 0.02086,-1.9797c0.01853,-0.51783 0.49058,-1.06808 0.99134,-1.21977c0.65506,-0.19836 1.22232,-0.07559 1.71307,0.41408c1.01579,1.01378 2.03943,2.01985 3.0604,3.02843c0.80985,0.80008 1.61653,1.60342 2.43305,2.39663c0.3196,0.31041 0.53014,0.67027 0.55358,1.11275c0.02578,0.48606 -0.14995,0.9045 -0.50101,1.25094c-1.32304,1.3055 -2.64333,2.61377 -3.96479,3.92078c-0.52238,0.51657 -1.04892,1.02903 -1.56637,1.55038c-0.32719,0.32952 -0.71397,0.51447 -1.17902,0.53492c-0.57561,0.02531 -1.26029,-0.58797 -1.4372,-1.06532c-0.12676,-0.34217 -0.12083,-0.67521 -0.124,-1.01822c-0.00392,-0.43084 -0.00517,-0.86176 0.00117,-1.29251c0.00209,-0.14582 -0.0504,-0.19593 -0.19702,-0.19543c-1.1307,0.00419 -2.2614,0.00226 -3.3921,0.0021zM1204.9962,291.13069c0.08812,-0.07685 0.13994,-0.11724 0.18625,-0.16317c0.78331,-0.77645 1.56479,-1.55482 2.34902,-2.33043c0.99635,-0.98529 1.9942,-1.96898 2.99323,-2.95158c0.09121,-0.08975 0.09605,-0.15629 -0.00058,-0.24873c-0.38102,-0.36396 -0.75811,-0.73203 -1.13254,-1.10261c-1.41141,-1.39718 -2.82108,-2.79612 -4.23257,-4.19331c-0.03889,-0.03855 -0.09054,-0.06428 -0.16155,-0.11355c-0.01026,0.08615 -0.02095,0.13442 -0.02095,0.18261c0.00075,1.02987 0.00267,2.05965 0.00451,3.08952c0.00042,0.23231 0.00067,0.23247 -0.22622,0.23247c-2.65594,-0.00034 -5.31179,-0.00084 -7.96764,-0.00126c-0.23524,-0.00008 -0.23557,-0.00017 -0.23557,0.2313c-0.00025,1.19781 0.00008,2.39562 -0.00083,3.59335c-0.00008,0.22108 0.01752,0.24513 0.23474,0.24504c2.66712,-0.00017 5.33423,-0.00034 8.00135,-0.00545c0.14536,-0.00025 0.19894,0.03503 0.19794,0.1863c-0.00701,1.04655 -0.00668,2.09318 -0.00768,3.13981c-0.00008,0.05355 0.00943,0.1071 0.01911,0.20968z" id="Path-0"/></defs><desc>Generated with Avocode.</desc><g transform="matrix(1,0,0,1,-1193,-269)"><g><title>Shape 17</title><use xlink:href="#Path-0" fill="#005fb2" fill-opacity="1"/></g></g></svg>